# xmcd
#
# Track frame offsets:
#	150
#	16673
#	29003
#	42008
#	54346
#	63286
#	75181
#	84609
#	96654
#	108542
#
# Disc length: 1566 seconds
#
# Revision: 1
# Processed by: cddbd v1.5.2PL0 Copyright (c) Steve Scherf et al.
# Submitted via: audiograbber 1.83.01
#
DISCID=72061c0a
DTITLE=Buck Owens - The Great White Horse
DYEAR=1970
DGENRE=Country
TTITLE0=The Great White Horse
TTITLE1=I've Never Had A Dream Come True Before
TTITLE2=Then Maybe I Can Get Some Sleep
TTITLE3=I Thank Him For Sending Me You
TTITLE4=I Don't Care (Just As Long As You Love Me)
TTITLE5=Today I Started Loving You Again
TTITLE6=Think Of Me
TTITLE7=Your Tender Loving Care
TTITLE8=Tennessee Bird Walk
TTITLE9=High As The Mountains
EXTD=
EXTT0=
EXTT1=
EXTT2=
EXTT3=
EXTT4=
EXTT5=
EXTT6=
EXTT7=
EXTT8=
EXTT9=
PLAYORDER=
